<svg id="emNdB9zc7qr1" xmlns="http://www.w3.org/2000/svg" xmlns:xlink="http://www.w3.org/1999/xlink" viewBox="0 0 414.8 362.7" shape-rendering="geometricPrecision" text-rendering="geometricPrecision">
<style><![CDATA[
#emNdB9zc7qr48_to {animation: emNdB9zc7qr48_to__to 6000ms linear infinite normal forwards}@keyframes emNdB9zc7qr48_to__to { 0% {transform: translate(208.049995px,158.799995px)} 15% {transform: translate(208.049995px,158.799995px)} 43.333333% {transform: translate(208.049995px,148.799995px)} 70% {transform: translate(208.049995px,164.799995px)} 100% {transform: translate(208.049995px,158.799995px)}} #emNdB9zc7qr48_ts {animation: emNdB9zc7qr48_ts__ts 6000ms linear infinite normal forwards}@keyframes emNdB9zc7qr48_ts__ts { 0% {transform: scale(0,0)} 5% {transform: scale(0,0)} 13.333333% {transform: scale(1,1)} 100% {transform: scale(1,1)}} #emNdB9zc7qr97_to {animation: emNdB9zc7qr97_to__to 6000ms linear infinite normal forwards}@keyframes emNdB9zc7qr97_to__to { 0% {transform: translate(382.449997px,201.25px)} 50% {transform: translate(362.449997px,181.25px)} 100% {transform: translate(382.449997px,201.25px)}} #emNdB9zc7qr97_tr {animation: emNdB9zc7qr97_tr__tr 6000ms linear infinite normal forwards}@keyframes emNdB9zc7qr97_tr__tr { 0% {transform: rotate(0deg)} 100% {transform: rotate(360deg)}} #emNdB9zc7qr107_to {animation: emNdB9zc7qr107_to__to 6000ms linear infinite normal forwards}@keyframes emNdB9zc7qr107_to__to { 0% {transform: translate(306.449997px,9.85px)} 50% {transform: translate(306.449997px,29.85px)} 100% {transform: translate(306.449997px,9.85px)}} #emNdB9zc7qr107_tr {animation: emNdB9zc7qr107_tr__tr 6000ms linear infinite normal forwards}@keyframes emNdB9zc7qr107_tr__tr { 0% {transform: rotate(0deg)} 100% {transform: rotate(-360deg)}} #emNdB9zc7qr117_tr {animation: emNdB9zc7qr117_tr__tr 6000ms linear infinite normal forwards}@keyframes emNdB9zc7qr117_tr__tr { 0% {transform: translate(131.650002px,34.499999px) rotate(0deg)} 100% {transform: translate(131.650002px,34.499999px) rotate(360deg)}} #emNdB9zc7qr125_to {animation: emNdB9zc7qr125_to__to 6000ms linear infinite normal forwards}@keyframes emNdB9zc7qr125_to__to { 0% {transform: translate(325.600006px,337.299988px)} 33.333333% {transform: translate(331.600006px,331.299988px)} 66.666667% {transform: translate(320.600006px,344.299988px)} 100% {transform: translate(325.600006px,337.299988px)}} #emNdB9zc7qr126_to {animation: emNdB9zc7qr126_to__to 6000ms linear infinite normal forwards}@keyframes emNdB9zc7qr126_to__to { 0% {transform: translate(193.699997px,55px)} 33.333333% {transform: translate(193.699997px,45px)} 66.666667% {transform: translate(193.699997px,75px)} 100% {transform: translate(193.699997px,55px)}} #emNdB9zc7qr128_to {animation: emNdB9zc7qr128_to__to 6000ms linear infinite normal forwards}@keyframes emNdB9zc7qr128_to__to { 0% {transform: translate(168.199997px,332.200012px)} 33.333333% {transform: translate(168.199997px,342.200012px)} 66.666667% {transform: translate(168.199997px,349.200012px)} 100% {transform: translate(168.199997px,332.2px)}}
]]></style>
<g><path d="M394.7,176.6c-3.6-6.1-7.6-11.9-11.6-17.5-20.5-28.5-39.2-54.1-43.6-90.1-2.1-17.5-3.5-31.9-16-45.6-19.7-21.7-51.3-25.6-79-22.4-27.6,3.2-53.4,16.5-73.6,35.3-14.4,13.3-27.1,28.6-42.9,40.3-3.7,2.7-7.5,5.3-11.6,7.5C91.5,98,62.6,103,38.4,118.5C21.9,129,9.1,144.1,6.2,164c-3.9,27.4,12,51.7,23.3,75.2c2.3,4.7,23.1,59.5,11.4,59.5c0,0,336.5,1.2,336.5,1.2c1-21.3,18.4-37.7,26.8-57.3c10-23.3,2.4-45.8-9.5-66Z" fill="#e4f0fb"/></g><g><g><rect width="253.5" height="140.2" rx="9.5" ry="9.5" transform="translate(81.3 141.3)" fill="#454798"/><rect width="239.2" height="124.7" rx="0" ry="0" transform="translate(88.5 148.9)" fill="#e0f1f4"/><path d="M67.3,281.5h281.5c3.1,0,5.6,2.5,5.6,5.6v5.2h-292.6v-5.2c0-3.1,2.5-5.6,5.6-5.6Z" fill="#6f73eb"/><path d="M227.3,286.9h-38.4c-2.1,0-4.1-1.1-5.2-3l-1.4-2.4h51.8l-1.4,2.4c-1.1,1.8-3.1,3-5.2,3Z" fill="#454798"/></g><path d="M405,311.8h-393.9c-5.4,0-9.8-4.4-9.8-9.8v0c0-5.4,4.4-9.8,9.8-9.8h393.9c5.4,0,9.8,4.4,9.8,9.8v0c0,5.4-4.4,9.8-9.8,9.8Z" fill="#273d71"/><g><g><rect width="10" height="10" rx="0" ry="0" transform="translate(112.6 219.9)" fill="#fefefe"/><rect width="10" height="10" rx="0" ry="0" transform="translate(112.6 232.5)" opacity="0.5" fill="#fefefe"/><rect width="10" height="10" rx="0" ry="0" transform="translate(112.6 245.1)" opacity="0.2" fill="#fefefe"/></g><g><rect width="8.3" height="8.3" rx="0" ry="0" transform="translate(125.8 219.9)" fill="#fefefe"/><rect width="8.3" height="8.3" rx="0" ry="0" transform="translate(125.8 230.4)" opacity="0.5" fill="#fefefe"/><rect width="8.3" height="8.3" rx="0" ry="0" transform="translate(125.8 241)" opacity="0.2" fill="#fefefe"/></g><g><rect width="10" height="10" rx="0" ry="0" transform="translate(154.8 219.9)" fill="#fefefe"/><rect width="10" height="10" rx="0" ry="0" transform="translate(154.8 232.5)" opacity="0.5" fill="#fefefe"/><rect width="10" height="10" rx="0" ry="0" transform="translate(154.8 245.1)" opacity="0.2" fill="#fefefe"/></g><g><rect width="10" height="10" rx="0" ry="0" transform="translate(260.5 219.9)" fill="#fefefe"/><rect width="10" height="10" rx="0" ry="0" transform="translate(260.5 232.5)" opacity="0.5" fill="#fefefe"/><rect width="10" height="10" rx="0" ry="0" transform="translate(260.5 245.1)" opacity="0.2" fill="#fefefe"/></g><g><rect width="10" height="10" rx="0" ry="0" transform="translate(293.6 219.9)" fill="#fefefe"/><rect width="10" height="10" rx="0" ry="0" transform="translate(293.6 232.5)" opacity="0.5" fill="#fefefe"/><rect width="10" height="10" rx="0" ry="0" transform="translate(293.6 245.1)" opacity="0.2" fill="#fefefe"/></g><g><rect width="10" height="10" rx="0" ry="0" transform="translate(233.9 219.9)" fill="#fefefe"/><rect width="10" height="10" rx="0" ry="0" transform="translate(233.9 232.5)" opacity="0.5" fill="#fefefe"/><rect width="10" height="10" rx="0" ry="0" transform="translate(233.9 245.1)" opacity="0.2" fill="#fefefe"/></g><g><rect width="8.3" height="8.3" rx="0" ry="0" transform="translate(177.9 219.9)" fill="#fefefe"/><rect width="8.3" height="8.3" rx="0" ry="0" transform="translate(177.9 230.4)" opacity="0.5" fill="#fefefe"/><rect width="8.3" height="8.3" rx="0" ry="0" transform="translate(177.9 241)" opacity="0.2" fill="#fefefe"/></g><g><rect width="8.3" height="8.3" rx="0" ry="0" transform="translate(205.9 219.9)" fill="#fefefe"/><rect width="8.3" height="8.3" rx="0" ry="0" transform="translate(205.9 230.4)" opacity="0.5" fill="#fefefe"/><rect width="8.3" height="8.3" rx="0" ry="0" transform="translate(205.9 241)" opacity="0.2" fill="#fefefe"/></g><g><rect width="8.3" height="8.3" rx="0" ry="0" transform="translate(276.6 219.9)" fill="#fefefe"/><rect width="8.3" height="8.3" rx="0" ry="0" transform="translate(276.6 230.4)" opacity="0.5" fill="#fefefe"/><rect width="8.3" height="8.3" rx="0" ry="0" transform="translate(276.6 241)" opacity="0.2" fill="#fefefe"/></g></g><g id="emNdB9zc7qr48_to" transform="translate(208.049995,158.799995)"><g id="emNdB9zc7qr48_ts" transform="scale(0,0)"><g transform="translate(-208.049995,-158.799995)"><rect width="190.9" height="123.7" rx="0" ry="0" transform="translate(112.6 93.1)" fill="#fefefe"/><rect width="175.4" height="108.1" rx="0" ry="0" transform="translate(120.4 100.9)" fill="none" stroke="#b627f2" stroke-width="1.1" stroke-miterlimit="10"/><g><path d="M162.6,135.4c-.7.4-2.1.7-4,.7-4.2,0-7.4-2.7-7.4-7.6s3.2-7.9,7.8-7.9s3,.4,3.6.7l-.5,1.6c-.7-.4-1.8-.6-3-.6-3.5,0-5.8,2.2-5.8,6.2s2.1,6,5.8,6s2.4-.2,3.2-.6l.4,1.5Z" fill="#b627f2"/><path d="M172.8,128.9h-5.8v5.4h6.5v1.6h-8.4v-15h8.1v1.6h-6.1v4.7h5.8v1.6Z" fill="#b627f2"/><path d="M176,121.1c1-.2,2.4-.3,3.7-.3c2.1,0,3.4.4,4.3,1.2.8.7,1.2,1.7,1.2,2.8c0,2-1.2,3.3-2.8,3.8v0c1.2.5,1.8,1.5,2.2,3.1.5,2.1.8,3.5,1.2,4.1h-2c-.2-.4-.6-1.7-1-3.6-.4-2.1-1.2-2.8-3-2.9h-1.8v6.5h-1.9v-14.8Zm1.9,6.8h2c2.1,0,3.4-1.1,3.4-2.8s-1.4-2.8-3.4-2.8c-.9,0-1.6,0-1.9.2v5.5Z" fill="#b627f2"/><path d="M190.9,122.5h-4.6v-1.6h11.1v1.6h-4.6v13.3h-2v-13.3Z" fill="#b627f2"/><path d="M201.1,120.9v15h-1.9v-15h1.9Z" fill="#b627f2"/><path d="M204.4,120.9h8.1v1.6h-6.1v5h5.7v1.6h-5.7v6.8h-1.9v-15Z" fill="#b627f2"/><path d="M217.2,120.9v15h-1.9v-15h1.9Z" fill="#b627f2"/><path d="M231,135.4c-.7.4-2.1.7-4,.7-4.2,0-7.4-2.7-7.4-7.6s3.2-7.9,7.8-7.9s3,.4,3.6.7l-.5,1.6c-.7-.4-1.8-.6-3-.6-3.5,0-5.8,2.2-5.8,6.2s2.1,6,5.8,6s2.4-.2,3.2-.6l.4,1.5Z" fill="#b627f2"/><path d="M236,131.2l-1.6,4.7h-2l5.1-15h2.3l5.1,15h-2.1l-1.6-4.7h-5.3Zm4.9-1.5l-1.5-4.3c-.3-1-.6-1.9-.8-2.7v0c-.2.9-.5,1.8-.8,2.7l-1.5,4.3h4.5Z" fill="#b627f2"/><path d="M248.3,122.5h-4.6v-1.6h11.1v1.6h-4.6v13.3h-2v-13.3Z" fill="#b627f2"/><path d="M264.2,128.9h-5.8v5.4h6.5v1.6h-8.4v-15h8.1v1.6h-6.1v4.7h5.8v1.6Z" fill="#b627f2"/></g><g><line x1="163.4" y1="145.9" x2="252.7" y2="145.9" fill="none" stroke="#273d71" stroke-width="1.1" stroke-miterlimit="10"/><line x1="163.4" y1="150.6" x2="252.7" y2="150.6" fill="none" stroke="#273d71" stroke-width="1.1" stroke-miterlimit="10"/><line x1="163.4" y1="155.3" x2="252.7" y2="155.3" fill="none" stroke="#273d71" stroke-width="1.1" stroke-miterlimit="10"/><line x1="163.4" y1="159.9" x2="252.7" y2="159.9" fill="none" stroke="#273d71" stroke-width="1.1" stroke-miterlimit="10"/></g><line x1="164.6" y1="188.2" x2="200.4" y2="188.2" fill="none" stroke="#273d71" stroke-width="1.1" stroke-miterlimit="10"/><line x1="215.7" y1="188.2" x2="251.5" y2="188.2" fill="none" stroke="#273d71" stroke-width="1.1" stroke-miterlimit="10"/><polygon points="303.5,93.1 112.6,216.8 303.5,216.8 303.5,93.1" opacity="0" fill="#273d71"/><g><path d="M289.9,190.6c0,1.6-2,2.9-2.4,4.3-.5,1.5.4,3.7-.5,4.9-.9,1.3-3.3,1.1-4.5,2s-1.8,3.2-3.3,3.7c-1.4.5-3.2-1-4.8-1s-3.4,1.5-4.8,1c-1.5-.5-2.1-2.8-3.3-3.7-1.3-.9-3.6-.8-4.5-2s0-3.4-.5-4.9c-.5-1.4-2.4-2.7-2.4-4.3s2-2.9,2.4-4.3c.5-1.5-.4-3.7.5-4.9.9-1.3,3.3-1.1,4.5-2s1.8-3.2,3.3-3.7c1.4-.5,3.2,1,4.8,1s3.4-1.5,4.8-1c1.5.5,2.1,2.8,3.3,3.7c1.3.9,3.6.8,4.5,2s0,3.4.5,4.9c.5,1.4,2.4,2.7,2.4,4.3Z" fill="#454798"/><polygon points="281.8,224.5 274.2,219.9 266.7,224.5 266.7,196.3 281.8,196.3 281.8,224.5" fill="#454798"/><circle r="10.7" transform="matrix(.159881-.987136 0.987136 0.159881 274.28756 190.700558)" fill="#05cfd9"/></g></g></g></g><g><rect width="88.3" height="27.4" rx="0" ry="0" transform="translate(20.7 264.8)" fill="#b627f2"/><rect width="59.2" height="5.8" rx="0" ry="0" transform="translate(109 264.8)" fill="#b627f2"/><rect width="59.2" height="5.8" rx="0" ry="0" transform="translate(109 286.4)" fill="#b627f2"/><rect width="57" height="15.8" rx="0" ry="0" transform="translate(109 270.6)" fill="#fefefe"/></g><g><rect width="79" height="24.5" rx="0" ry="0" transform="matrix(-1 0 0-1 147.9 264.8)" fill="#6f73eb"/><rect width="52.9" height="5.2" rx="0" ry="0" transform="matrix(-1 0 0-1 68.9 264.9)" fill="#5862e0"/><rect width="52.9" height="5.2" rx="0" ry="0" transform="matrix(-1 0 0-1 68.9 245.5)" fill="#5862e0"/><rect width="51" height="14.1" rx="0" ry="0" transform="matrix(-1 0 0-1 68.9 259.6)" fill="#fefefe"/></g><g><rect width="49.7" height="54.7" rx="0" ry="0" transform="translate(320.6 237.5)" fill="#22cdab"/><path d="M370.3,247.7h1.2c9.3,0,16.9,7.6,16.9,16.9v2.7c0,9.3-7.6,16.9-16.9,16.9h-1.2" fill="none" stroke="#22cdab" stroke-width="7" stroke-miterlimit="10"/><g opacity="0.3"><polygon points="336.8,292.2 327,292.2 341,237.5 350.8,237.5 336.8,292.2" fill="#fefefe"/><polygon points="345.1,292.2 340.4,292.2 354.3,237.5 359,237.5 345.1,292.2" fill="#fefefe"/></g></g><g><g><line x1="74.9" y1="106.6" x2="68.6" y2="112.9" fill="none" stroke="#5557cd" stroke-miterlimit="10"/><line x1="66.9" y1="114.6" x2="60.6" y2="120.9" fill="none" stroke="#5557cd" stroke-miterlimit="10"/><line x1="60.6" y1="106.6" x2="66.9" y2="112.9" fill="none" stroke="#5557cd" stroke-miterlimit="10"/><line x1="68.6" y1="114.6" x2="74.9" y2="120.9" fill="none" stroke="#5557cd" stroke-miterlimit="10"/></g><g id="emNdB9zc7qr97_to" transform="translate(382.449997,201.25)"><g id="emNdB9zc7qr97_tr" transform="rotate(0)"><g transform="translate(-382.449997,-201.25)"><line x1="389.6" y1="194.1" x2="383.3" y2="200.4" fill="none" stroke="#5557cd" stroke-miterlimit="10"/><line x1="381.6" y1="202.1" x2="375.3" y2="208.4" fill="none" stroke="#5557cd" stroke-miterlimit="10"/><line x1="375.3" y1="194.1" x2="381.6" y2="200.4" fill="none" stroke="#5557cd" stroke-miterlimit="10"/><line x1="383.3" y1="202.1" x2="389.6" y2="208.4" fill="none" stroke="#5557cd" stroke-miterlimit="10"/></g></g></g><g><line x1="88.5" y1="348" x2="82.2" y2="354.3" fill="none" stroke="#5557cd" stroke-miterlimit="10"/><line x1="80.5" y1="356" x2="74.2" y2="362.3" fill="none" stroke="#5557cd" stroke-miterlimit="10"/><line x1="74.2" y1="348" x2="80.5" y2="354.3" fill="none" stroke="#5557cd" stroke-miterlimit="10"/><line x1="82.2" y1="356" x2="88.5" y2="362.3" fill="none" stroke="#5557cd" stroke-miterlimit="10"/></g><g id="emNdB9zc7qr107_to" transform="translate(306.449997,9.85)"><g id="emNdB9zc7qr107_tr" transform="rotate(0)"><g transform="translate(-306.449997,-9.85)"><line x1="313.6" y1="2.7" x2="307.3" y2="9" fill="none" stroke="#5557cd" stroke-miterlimit="10"/><line x1="305.6" y1="10.7" x2="299.3" y2="17" fill="none" stroke="#5557cd" stroke-miterlimit="10"/><line x1="299.3" y1="2.7" x2="305.6" y2="9" fill="none" stroke="#5557cd" stroke-miterlimit="10"/><line x1="307.3" y1="10.7" x2="313.6" y2="17" fill="none" stroke="#5557cd" stroke-miterlimit="10"/></g></g></g><g><line x1="258.7" y1="348" x2="252.4" y2="354.3" fill="none" stroke="#5557cd" stroke-miterlimit="10"/><line x1="250.7" y1="356" x2="244.4" y2="362.3" fill="none" stroke="#5557cd" stroke-miterlimit="10"/><line x1="244.4" y1="348" x2="250.7" y2="354.3" fill="none" stroke="#5557cd" stroke-miterlimit="10"/><line x1="252.4" y1="356" x2="258.7" y2="362.3" fill="none" stroke="#5557cd" stroke-miterlimit="10"/></g><g id="emNdB9zc7qr117_tr" transform="translate(131.650002,34.499999) rotate(0)"><g transform="translate(-131.650002,-34.499999)"><line x1="138.8" y1="27.4" x2="132.5" y2="33.7" fill="none" stroke="#5557cd" stroke-miterlimit="10"/><line x1="130.8" y1="35.4" x2="124.5" y2="41.6" fill="none" stroke="#5557cd" stroke-miterlimit="10"/><line x1="124.5" y1="27.4" x2="130.8" y2="33.7" fill="none" stroke="#5557cd" stroke-miterlimit="10"/><line x1="132.5" y1="35.4" x2="138.8" y2="41.6" fill="none" stroke="#5557cd" stroke-miterlimit="10"/></g></g><path d="M103.5,70c0,1.5-1.3,2.8-2.8,2.8s-2.8-1.3-2.8-2.8s1.3-2.8,2.8-2.8s2.8,1.3,2.8,2.8Z" fill="none" stroke="#5557cd" stroke-miterlimit="10"/><circle r="7.5" transform="matrix(.736097-.676876 0.676876 0.736097 276.45319 47.802824)" fill="none" stroke="#5557cd" stroke-miterlimit="10"/><path d="M399.1,96.2c0,1.7-1.4,3.1-3.1,3.1s-3.1-1.4-3.1-3.1s1.4-3.1,3.1-3.1s3.1,1.4,3.1,3.1Z" fill="none" stroke="#5557cd" stroke-miterlimit="10"/><g id="emNdB9zc7qr125_to" transform="translate(325.600006,337.299988)"><path d="M328.7,337.3c0,1.7-1.4,3.1-3.1,3.1s-3.1-1.4-3.1-3.1s1.4-3.1,3.1-3.1s3.1,1.4,3.1,3.1Z" transform="translate(-325.600006,-337.299988)" fill="none" stroke="#5557cd" stroke-miterlimit="10"/></g><g id="emNdB9zc7qr126_to" transform="translate(193.699997,55)"><path d="M196.8,55c0,1.7-1.4,3.1-3.1,3.1s-3.1-1.4-3.1-3.1s1.4-3.1,3.1-3.1s3.1,1.4,3.1,3.1Z" transform="translate(-193.699997,-55)" fill="none" stroke="#5557cd" stroke-miterlimit="10"/></g><path d="M10.7,165c0,2.8-2.3,5.1-5.1,5.1s-5.1-2.3-5.1-5.1s2.3-5.1,5.1-5.1s5.1,2.3,5.1,5.1Z" fill="none" stroke="#5557cd" stroke-miterlimit="10"/><g id="emNdB9zc7qr128_to" transform="translate(168.199997,332.200012)"><path d="M173.3,332.2c0,2.8-2.3,5.1-5.1,5.1s-5.1-2.3-5.1-5.1s2.3-5.1,5.1-5.1s5.1,2.3,5.1,5.1Z" transform="translate(-168.199997,-332.200012)" fill="none" stroke="#5557cd" stroke-miterlimit="10"/></g></g></g></svg>
